<mxfile host="app.diagrams.net" modified="2021-01-19T07:40:12.518Z" agent="5.0 (X11; Linux x86_64) AppleWebKit/537.36 (KHTML, like Gecko) Chrome/87.0.4280.141 Safari/537.36" etag="JYjcWq-F-inbPIo2DOG4" version="14.2.4" type="github">
  <diagram id="kgpKYQtTHZ0yAKxKKP6v" name="Page-1">
    <mxGraphModel dx="1382" dy="761" grid="1" gridSize="10" guides="1" tooltips="1" connect="1" arrows="1" fold="1" page="1" pageScale="1" pageWidth="850" pageHeight="1100" math="0" shadow="0">
      <root>
        <mxCell id="0" />
        <mxCell id="1" parent="0" />
        <mxCell id="3nuBFxr9cyL0pnOWT2aG-1" value="ReceiverController" style="shape=umlLifeline;perimeter=lifelinePerimeter;container=1;collapsible=0;recursiveResize=0;rounded=0;shadow=0;strokeWidth=1;" parent="1" vertex="1">
          <mxGeometry x="120" y="80" width="100" height="480" as="geometry" />
        </mxCell>
        <mxCell id="3nuBFxr9cyL0pnOWT2aG-2" value="" style="points=[];perimeter=orthogonalPerimeter;rounded=0;shadow=0;strokeWidth=1;" parent="3nuBFxr9cyL0pnOWT2aG-1" vertex="1">
          <mxGeometry x="45" y="70" width="10" height="190" as="geometry" />
        </mxCell>
        <mxCell id="3nuBFxr9cyL0pnOWT2aG-3" value="mobile()" style="verticalAlign=bottom;startArrow=oval;endArrow=block;startSize=8;shadow=0;strokeWidth=1;" parent="3nuBFxr9cyL0pnOWT2aG-1" target="3nuBFxr9cyL0pnOWT2aG-2" edge="1">
          <mxGeometry relative="1" as="geometry">
            <mxPoint x="-15" y="70" as="sourcePoint" />
          </mxGeometry>
        </mxCell>
        <mxCell id="3nuBFxr9cyL0pnOWT2aG-5" value="ReceiverService" style="shape=umlLifeline;perimeter=lifelinePerimeter;container=1;collapsible=0;recursiveResize=0;rounded=0;shadow=0;strokeWidth=1;" parent="1" vertex="1">
          <mxGeometry x="350" y="80" width="100" height="490" as="geometry" />
        </mxCell>
        <mxCell id="3nuBFxr9cyL0pnOWT2aG-6" value="" style="points=[];perimeter=orthogonalPerimeter;rounded=0;shadow=0;strokeWidth=1;" parent="3nuBFxr9cyL0pnOWT2aG-5" vertex="1">
          <mxGeometry x="45" y="80" width="10" height="190" as="geometry" />
        </mxCell>
        <mxCell id="3g8HVlSdr4foOUqnur-r-5" value="" style="html=1;points=[];perimeter=orthogonalPerimeter;" vertex="1" parent="3nuBFxr9cyL0pnOWT2aG-5">
          <mxGeometry x="55" y="120" width="10" height="40" as="geometry" />
        </mxCell>
        <mxCell id="3g8HVlSdr4foOUqnur-r-6" value="buildEventByMobileMessage()" style="edgeStyle=orthogonalEdgeStyle;html=1;align=left;spacingLeft=2;endArrow=block;rounded=0;entryX=1;entryY=0;exitX=1;exitY=0.147;exitDx=0;exitDy=0;exitPerimeter=0;" edge="1" target="3g8HVlSdr4foOUqnur-r-5" parent="3nuBFxr9cyL0pnOWT2aG-5" source="3nuBFxr9cyL0pnOWT2aG-6">
          <mxGeometry relative="1" as="geometry">
            <mxPoint x="60" y="140" as="sourcePoint" />
            <Array as="points">
              <mxPoint x="60" y="108" />
              <mxPoint x="60" y="100" />
              <mxPoint x="85" y="100" />
              <mxPoint x="85" y="120" />
            </Array>
          </mxGeometry>
        </mxCell>
        <mxCell id="3nuBFxr9cyL0pnOWT2aG-8" value="sendMobileMessage(MobileMessage,ip)" style="verticalAlign=bottom;endArrow=block;entryX=0;entryY=0;shadow=0;strokeWidth=1;" parent="1" source="3nuBFxr9cyL0pnOWT2aG-2" target="3nuBFxr9cyL0pnOWT2aG-6" edge="1">
          <mxGeometry relative="1" as="geometry">
            <mxPoint x="275" y="160" as="sourcePoint" />
          </mxGeometry>
        </mxCell>
        <mxCell id="3g8HVlSdr4foOUqnur-r-3" value="EventService" style="shape=umlLifeline;perimeter=lifelinePerimeter;whiteSpace=wrap;html=1;container=1;collapsible=0;recursiveResize=0;outlineConnect=0;" vertex="1" parent="1">
          <mxGeometry x="580" y="80" width="100" height="480" as="geometry" />
        </mxCell>
        <mxCell id="3g8HVlSdr4foOUqnur-r-4" value="" style="html=1;points=[];perimeter=orthogonalPerimeter;" vertex="1" parent="3g8HVlSdr4foOUqnur-r-3">
          <mxGeometry x="45" y="110" width="10" height="240" as="geometry" />
        </mxCell>
        <mxCell id="3g8HVlSdr4foOUqnur-r-9" value="" style="html=1;points=[];perimeter=orthogonalPerimeter;" vertex="1" parent="3g8HVlSdr4foOUqnur-r-3">
          <mxGeometry x="55" y="230" width="10" height="100" as="geometry" />
        </mxCell>
        <mxCell id="3g8HVlSdr4foOUqnur-r-10" value="sendEvent(Event event)" style="edgeStyle=orthogonalEdgeStyle;html=1;align=left;spacingLeft=2;endArrow=block;rounded=0;entryX=1;entryY=0;" edge="1" target="3g8HVlSdr4foOUqnur-r-9" parent="3g8HVlSdr4foOUqnur-r-3">
          <mxGeometry relative="1" as="geometry">
            <mxPoint x="60" y="210" as="sourcePoint" />
            <Array as="points">
              <mxPoint x="85" y="210" />
            </Array>
          </mxGeometry>
        </mxCell>
        <mxCell id="3g8HVlSdr4foOUqnur-r-12" value="" style="html=1;points=[];perimeter=orthogonalPerimeter;" vertex="1" parent="3g8HVlSdr4foOUqnur-r-3">
          <mxGeometry x="65" y="270" width="10" height="40" as="geometry" />
        </mxCell>
        <mxCell id="3g8HVlSdr4foOUqnur-r-13" value="buildProducerByConfig()" style="edgeStyle=orthogonalEdgeStyle;html=1;align=left;spacingLeft=2;endArrow=block;rounded=0;entryX=1;entryY=0;" edge="1" target="3g8HVlSdr4foOUqnur-r-12" parent="3g8HVlSdr4foOUqnur-r-3">
          <mxGeometry relative="1" as="geometry">
            <mxPoint x="70" y="250" as="sourcePoint" />
            <Array as="points">
              <mxPoint x="95" y="250" />
            </Array>
          </mxGeometry>
        </mxCell>
        <mxCell id="3g8HVlSdr4foOUqnur-r-16" value="sendMessage(topic,event)" style="html=1;verticalAlign=bottom;endArrow=block;entryX=0.2;entryY=0.717;entryDx=0;entryDy=0;entryPerimeter=0;" edge="1" parent="3g8HVlSdr4foOUqnur-r-3" target="3g8HVlSdr4foOUqnur-r-15">
          <mxGeometry width="80" relative="1" as="geometry">
            <mxPoint x="70" y="322" as="sourcePoint" />
            <mxPoint x="150" y="320" as="targetPoint" />
          </mxGeometry>
        </mxCell>
        <mxCell id="3g8HVlSdr4foOUqnur-r-7" style="edgeStyle=orthogonalEdgeStyle;rounded=0;orthogonalLoop=1;jettySize=auto;html=1;exitX=1.3;exitY=0.595;exitDx=0;exitDy=0;exitPerimeter=0;" edge="1" parent="1" source="3nuBFxr9cyL0pnOWT2aG-6" target="3g8HVlSdr4foOUqnur-r-3">
          <mxGeometry relative="1" as="geometry">
            <mxPoint x="410" y="310" as="sourcePoint" />
            <Array as="points">
              <mxPoint x="410" y="273" />
              <mxPoint x="410" y="270" />
            </Array>
          </mxGeometry>
        </mxCell>
        <mxCell id="3g8HVlSdr4foOUqnur-r-8" value="sendEventList(List&amp;lt;Event&amp;gt;)" style="text;html=1;align=center;verticalAlign=middle;resizable=0;points=[];autosize=1;" vertex="1" parent="1">
          <mxGeometry x="420" y="250" width="160" height="20" as="geometry" />
        </mxCell>
        <mxCell id="3g8HVlSdr4foOUqnur-r-14" value="ReceiverKafkaProducer" style="shape=umlLifeline;perimeter=lifelinePerimeter;whiteSpace=wrap;html=1;container=1;collapsible=0;recursiveResize=0;outlineConnect=0;" vertex="1" parent="1">
          <mxGeometry x="810" y="80" width="130" height="510" as="geometry" />
        </mxCell>
        <mxCell id="3g8HVlSdr4foOUqnur-r-15" value="" style="html=1;points=[];perimeter=orthogonalPerimeter;" vertex="1" parent="3g8HVlSdr4foOUqnur-r-14">
          <mxGeometry x="60" y="175" width="10" height="205" as="geometry" />
        </mxCell>
        <mxCell id="3g8HVlSdr4foOUqnur-r-17" value="apache.KafkaProducer" style="shape=umlLifeline;perimeter=lifelinePerimeter;whiteSpace=wrap;html=1;container=1;collapsible=0;recursiveResize=0;outlineConnect=0;" vertex="1" parent="1">
          <mxGeometry x="970" y="80" width="130" height="500" as="geometry" />
        </mxCell>
        <mxCell id="3g8HVlSdr4foOUqnur-r-18" value="" style="html=1;points=[];perimeter=orthogonalPerimeter;" vertex="1" parent="3g8HVlSdr4foOUqnur-r-17">
          <mxGeometry x="60" y="160" width="10" height="270" as="geometry" />
        </mxCell>
        <mxCell id="3g8HVlSdr4foOUqnur-r-19" value="send()" style="html=1;verticalAlign=bottom;endArrow=block;" edge="1" parent="1" target="3g8HVlSdr4foOUqnur-r-17">
          <mxGeometry width="80" relative="1" as="geometry">
            <mxPoint x="880" y="440" as="sourcePoint" />
            <mxPoint x="960" y="440" as="targetPoint" />
          </mxGeometry>
        </mxCell>
      </root>
    </mxGraphModel>
  </diagram>
</mxfile>
